<svg version="1.1" id="Layer_1" xmlns="http://www.w3.org/2000/svg" xmlns:xlink="http://www.w3.org/1999/xlink" x="0px" y="0px" width="100%" viewBox="0 0 666 375" enable-background="new 0 0 666 375" xml:space="preserve">
  <path fill="#FCFCFC" opacity="1.000000" stroke="none" d="
M203.077042,204.089752 
	C197.370987,221.203918 185.972580,231.191147 168.647690,234.884537 
	C148.713989,239.134125 127.271294,230.141571 118.048019,214.067764 
	C114.266670,207.477829 112.410370,200.451614 111.787102,192.737595 
	C111.080910,183.997192 112.296562,175.785248 115.837418,168.068939 
	C124.871849,148.380875 146.712891,138.023041 168.592148,142.644287 
	C188.074783,146.759323 200.074417,158.820786 204.571396,177.969269 
	C206.568649,186.473648 206.373306,195.267731 203.077042,204.089752 
M180.283051,195.441223 
	C182.853424,195.441223 185.423813,195.441223 187.887421,195.441223 
	C187.887421,190.460770 187.887421,186.130249 187.887421,181.842499 
	C178.256195,181.086670 176.221909,181.694626 174.969437,186.804382 
	C174.038712,190.601517 175.571960,193.789932 180.283051,195.441223 
M159.130722,206.761154 
	C158.364334,206.066772 157.612259,204.788986 156.829346,204.769806 
	C150.249466,204.608597 143.663956,204.678009 136.738297,204.678009 
	C136.587616,205.772903 136.371643,207.342010 136.229584,208.374283 
	C138.889084,208.374283 140.888779,208.451477 142.880646,208.359467 
	C148.343399,208.107147 153.802887,207.783722 159.130722,206.761154 
M149.418701,168.978943 
	C146.046310,168.749649 142.673920,168.520340 139.145798,168.280441 
	C139.145798,169.623215 139.145798,171.184433 139.145798,172.532349 
	C145.540421,172.532349 151.716721,172.532349 157.780533,172.532349 
	C157.780533,170.787598 157.780533,169.518524 157.780533,168.457306 
	C155.157013,168.641525 152.754196,168.810242 149.418701,168.978943 
z"/>
  <path fill="#FDFDFD" opacity="1.000000" stroke="none" d="
M379.957184,212.065750 
	C379.957245,219.692352 379.957245,226.830475 379.957245,234.214767 
	C356.568054,234.214767 333.495148,234.214767 310.436523,234.214767 
	C310.436523,203.855759 310.436523,173.665222 310.436523,143.468719 
	C333.591736,143.468719 356.499542,143.468719 379.687256,143.468719 
	C379.687256,154.097641 379.687256,164.512619 379.687256,175.285141 
	C367.622955,175.285141 355.511841,175.285141 343.040222,175.285141 
	C343.040222,178.556305 343.040222,181.482925 343.040222,184.874100 
	C352.711914,184.874100 362.618500,184.874100 372.755493,184.874100 
	C372.755493,187.387558 372.755493,189.449829 372.755493,191.981323 
	C362.771484,191.981323 352.866486,191.981323 342.985168,191.981323 
	C342.985168,195.198227 342.985168,197.944992 342.985168,201.661255 
	C353.531708,201.661255 363.803955,201.977814 374.042236,201.525406 
	C379.030945,201.304947 380.672394,202.878708 379.989868,207.585617 
	C379.800690,208.890320 379.958496,210.245331 379.957184,212.065750 
z"/>
  <path fill="#FBFBFB" opacity="1.000000" stroke="none" d="
M287.109375,223.916870 
	C287.109558,216.608032 287.109558,209.785370 287.109558,202.626221 
	C282.506592,202.626221 278.120514,202.626221 273.322174,202.626221 
	C273.322174,213.180878 273.322174,223.610596 273.322174,234.264435 
	C254.147125,234.264435 235.376938,234.264435 216.365814,234.264435 
	C216.365814,203.142990 216.365814,172.180313 216.365814,139.586548 
	C232.005051,155.295334 246.664886,170.020370 261.799896,185.222672 
	C264.195801,171.329453 262.155762,157.606400 263.164886,143.651886 
	C273.513794,143.651886 283.901672,143.651886 294.644257,143.651886 
	C294.644257,173.725845 294.644257,203.911057 294.644257,234.298996 
	C292.097931,234.298996 289.662292,234.298996 287.109192,234.298996 
	C287.109192,230.957184 287.109192,227.680099 287.109375,223.916870 
M245.670258,211.983566 
	C250.096786,211.983566 254.523331,211.983566 259.070221,211.983566 
	C259.070221,208.607895 259.070221,205.598068 259.070221,202.611069 
	C253.230301,202.611069 247.766891,202.611069 242.282303,202.611069 
	C242.282303,205.302139 242.101151,207.740295 242.393692,210.120255 
	C242.480438,210.826004 243.900314,211.367889 245.670258,211.983566 
M235.233444,224.061707 
	C236.502884,223.984177 237.772339,223.906631 239.201874,223.819321 
	C239.201874,220.640793 239.201874,217.746826 239.201874,214.755402 
	C233.704819,214.755402 228.470596,214.755402 223.210266,214.755402 
	C223.210266,217.938370 223.210266,220.851181 223.210266,224.062363 
	C227.071350,224.062363 230.682907,224.062363 235.233444,224.061707 
M225.704895,211.979706 
	C230.136826,211.979706 234.568756,211.979706 239.203690,211.979706 
	C239.203690,208.724197 239.203690,205.949371 239.203690,203.032639 
	C233.765640,202.735016 228.557022,202.449936 221.948120,202.088226 
	C223.070679,206.045609 223.912064,209.011780 225.704895,211.979706 
M258.439728,224.013229 
	C258.830811,220.961945 259.221893,217.910660 259.617554,214.823502 
	C253.208832,214.823502 247.802338,214.823502 242.303497,214.823502 
	C242.303497,217.995636 242.303497,220.884567 242.303497,224.056503 
	C247.533630,224.056503 252.490356,224.056503 258.439728,224.013229 
z"/>
  <path fill="#FCFCFC" opacity="1.000000" stroke="none" d="
M99.641243,232.769424 
	C85.433296,237.391647 71.759674,237.443130 58.604847,230.741440 
	C45.431038,224.030075 37.650921,213.490341 35.474388,198.493622 
	C33.825100,187.129700 34.504166,176.357224 39.581326,166.056213 
	C47.606586,149.773849 61.721527,143.026031 78.973007,141.742844 
	C90.939224,140.852783 101.784462,144.378693 111.732048,151.295944 
	C105.970352,160.870071 100.245255,170.383408 94.525475,179.887909 
	C84.644592,174.129013 77.222023,174.426880 71.857811,180.520874 
	C67.806511,185.123352 67.678024,191.837311 71.542580,196.993561 
	C76.153214,203.145279 83.254875,203.408279 95.781082,197.733093 
	C101.036850,207.110870 106.310310,216.520203 111.809761,226.332764 
	C108.057022,228.359619 104.041801,230.528244 99.641243,232.769424 
z"/>
  <path fill="#FCFCFC" opacity="1.000000" stroke="none" d="
M444.008362,235.263763 
	C432.840820,237.044373 422.525024,235.625809 412.725189,231.013062 
	C400.179504,225.107880 392.715607,215.203979 389.428223,201.723831 
	C387.485626,193.758102 387.055847,185.984848 388.874786,178.000229 
	C392.301758,162.956985 400.528931,151.758667 415.002838,145.873322 
	C432.504669,138.756790 449.197754,140.377090 465.178864,151.398926 
	C459.366943,161.031189 453.712585,170.402344 448.824951,178.502747 
	C442.851593,177.643677 437.702576,176.190369 432.646088,176.461761 
	C429.914917,176.608353 426.859344,179.269638 424.802277,181.561340 
	C420.998016,185.799515 421.309814,193.923309 425.513855,197.861572 
	C430.171051,202.224350 437.431152,204.815704 449.021912,197.489365 
	C454.324371,206.865738 459.613159,216.217926 465.012695,225.765945 
	C459.294189,231.333893 451.845367,233.236313 444.008362,235.263763 
z"/>
  <path fill="#FDFDFD" opacity="1.000000" stroke="none" d="
M561.245544,196.196091 
	C570.851440,177.129730 580.315186,158.409363 590.277710,138.702225 
	C606.595886,170.910370 622.468689,202.239410 638.600037,234.078796 
	C606.268188,234.078796 574.434082,234.078796 541.867676,234.078796 
	C548.384583,221.361694 554.743958,208.951889 561.245544,196.196091 
z"/>
  <path fill="#FBFBFB" opacity="1.000000" stroke="none" d="
M520.000244,143.326721 
	C530.645996,143.326218 540.791809,143.326218 551.329651,143.326218 
	C551.329651,153.954544 551.329651,164.354416 551.329651,175.221176 
	C544.241150,175.221176 536.974304,175.221176 529.254150,175.221176 
	C529.254150,195.075562 529.254150,214.476761 529.254150,234.177704 
	C518.061218,234.177704 507.325714,234.177704 496.115509,234.177704 
	C496.115509,214.594086 496.115509,195.192352 496.115509,175.413361 
	C487.880951,175.413361 480.113342,175.413361 472.134827,175.413361 
	C472.134827,164.602219 472.134827,154.172882 472.134827,143.327240 
	C487.935059,143.327240 503.717621,143.327240 520.000244,143.326721 
z"/>
</svg>
